<svg xmlns="http://www.w3.org/2000/svg">
  <defs>
    <!-- Robot 01 -->
    <symbol id="robot-01" viewBox="0 0 24 24">
      <rect x="4" y="8" width="16" height="12" rx="2" stroke="currentColor" fill="none"/>
      <rect x="8" y="4" width="8" height="4" rx="1" stroke="currentColor" fill="none"/>
      <line x1="12" y1="4" x2="12" y2="8" stroke="currentColor"/>
      <circle cx="8" cy="13" r="1.5" fill="currentColor"/>
      <circle cx="16" cy="13" r="1.5" fill="currentColor"/>
      <path d="M8 17h8" stroke="currentColor" strokeLinecap="round"/>
      <line x1="2" y1="14" x2="4" y2="14" stroke="currentColor" strokeLinecap="round"/>
      <line x1="20" y1="14" x2="22" y2="14" stroke="currentColor" strokeLinecap="round"/>
    </symbol>

    <!-- Body Part Muscle -->
    <symbol id="body-part-muscle" viewBox="0 0 24 24">
      <path d="M16 7C16 4.79086 14.2091 3 12 3C9.79086 3 8 4.79086 8 7C8 9.20914 9.79086 11 12 11C14.2091 11 16 9.20914 16 7Z" stroke="currentColor" fill="none"/>
      <path d="M4 15C4 15 4 11 8 11C8 11 8 13 12 13C16 13 16 11 16 11C20 11 20 15 20 15V21H4V15Z" stroke="currentColor" fill="none"/>
      <path d="M8 15L6 17" stroke="currentColor" strokeLinecap="round"/>
      <path d="M16 15L18 17" stroke="currentColor" strokeLinecap="round"/>
    </symbol>

    <!-- Music Note 01 -->
    <symbol id="music-note-01" viewBox="0 0 24 24">
      <path d="M9 18V6L21 3V15" stroke="currentColor" fill="none"/>
      <circle cx="6" cy="18" r="3" stroke="currentColor" fill="none"/>
      <circle cx="18" cy="15" r="3" stroke="currentColor" fill="none"/>
    </symbol>

    <!-- Vegetarian Food -->
    <symbol id="vegetarian-food" viewBox="0 0 24 24">
      <path d="M12 2C12 2 6 8 6 14C6 17.3137 8.68629 20 12 20C15.3137 20 18 17.3137 18 14C18 8 12 2 12 2Z" stroke="currentColor" fill="none"/>
      <path d="M12 8V16" stroke="currentColor" strokeLinecap="round"/>
      <path d="M8 12H16" stroke="currentColor" strokeLinecap="round"/>
    </symbol>

    <!-- Running Shoes -->
    <symbol id="running-shoes" viewBox="0 0 24 24">
      <path d="M2 18L7 13L10 14L14 10L19 15V18C19 19.1046 18.1046 20 17 20H4C2.89543 20 2 19.1046 2 18Z" stroke="currentColor" fill="none"/>
      <path d="M19 15L22 12V18C22 19.1046 21.1046 20 20 20H17" stroke="currentColor" fill="none"/>
      <path d="M7 13V10L10 7L14 10" stroke="currentColor" fill="none"/>
      <circle cx="5" cy="16" r="1" fill="currentColor"/>
      <circle cx="9" cy="16" r="1" fill="currentColor"/>
      <circle cx="13" cy="16" r="1" fill="currentColor"/>
    </symbol>

    <!-- Dashboard Circle -->
    <symbol id="dashboard-circle" viewBox="0 0 24 24">
      <circle cx="12" cy="12" r="10" stroke="currentColor" fill="none"/>
      <path d="M12 6V12L16 16" stroke="currentColor" strokeLinecap="round"/>
      <circle cx="12" cy="12" r="1" fill="currentColor"/>
      <path d="M6 12H7" stroke="currentColor" strokeLinecap="round"/>
      <path d="M17 12H18" stroke="currentColor" strokeLinecap="round"/>
      <path d="M12 6V7" stroke="currentColor" strokeLinecap="round"/>
      <path d="M12 17V18" stroke="currentColor" strokeLinecap="round"/>
    </symbol>

    <!-- Notification 03 -->
    <symbol id="notification-03" viewBox="0 0 24 24">
      <path d="M12 2C13.1046 2 14 2.89543 14 4V5.29C16.8915 6.15 19 8.83 19 12V17L21 19V20H3V19L5 17V12C5 8.83 7.10851 6.15 10 5.29V4C10 2.89543 10.8954 2 12 2Z" stroke="currentColor" fill="none"/>
      <path d="M9 21C9 21.7956 9.31607 22.5587 9.87868 23.1213C10.4413 23.6839 11.2044 24 12 24C12.7956 24 13.5587 23.6839 14.1213 23.1213C14.6839 22.5587 15 21.7956 15 21" stroke="currentColor" strokeLinecap="round"/>
    </symbol>

    <!-- User Circle -->
    <symbol id="user-circle" viewBox="0 0 24 24">
      <circle cx="12" cy="12" r="10" stroke="currentColor" fill="none"/>
      <circle cx="12" cy="9" r="3" stroke="currentColor" fill="none"/>
      <path d="M7 20.5C7 18 9 16 12 16C15 16 17 18 17 20.5" stroke="currentColor" strokeLinecap="round"/>
    </symbol>
  </defs>
</svg>